<svg width="132" height="58" viewBox="0 0 132 58" fill="none" xmlns="http://www.w3.org/2000/svg"><g clip-path="url(#clip0_3_4)"><path d="M61.781 51.04V30.983h-4.318v-5.985h4.318V23.92c0-5.878 3.509-9.382 8.744-9.382 2.537 0 5.236.7 6.8 2.48l-2.59 4.152c-.702-.647-1.62-1.025-2.86-1.025-1.944 0-3.24 1.24-3.24 3.775v1.078h5.29v5.985h-5.29v20.059h-6.854zm14.735 0V24.998h6.855v3.505c1.889-2.265 5.074-3.494 8.312-3.494v6.686c-.486-.108-1.08-.162-1.89-.162-2.266 0-5.289.637-6.422 2.308v17.2h-6.855zm18.08 0V24.998h6.855V51.04h-6.855zm9.823-13.048c0-7.387 5.182-13.642 13.764-13.642 8.636 0 13.817 6.255 13.817 13.642s-5.181 13.696-13.817 13.696c-8.582 0-13.764-6.31-13.764-13.696zm20.457 0c0-4.044-2.376-7.549-6.693-7.549-4.264 0-6.639 3.505-6.639 7.549 0 4.098 2.375 7.603 6.639 7.603 4.317 0 6.693-3.505 6.693-7.603z" fill="#fff"/><path d="M93.949 18.095a4.04 4.04 0 014.048-4.044c2.267 0 4.102 1.78 4.102 4.044a4.098 4.098 0 01-4.102 4.098c-2.213 0-4.048-1.833-4.048-4.098z" fill="#C92000"/><path d="M46.797 2.936L51.395 0l1.771 1.228 3.311 4.494v.454l-3.91.085-7.63 3.834-15.514 11.177-4.616 9.795-1.262 5.03 5.12 8.7 2.914 3.96-5.518 5.234-2.871-2.855-3.111-3.032-4.644.373-3.662-1.925-1.591 5.043-5.354-3.537-3.269-2.936L0 41.468l1.378-5.853 5.392-3.468 8.228-7.746L29.825 7.359l3.698 2.736 3.598-.739 2.26-3.095-1.14-4.234 8.556.909z" fill="#1D8CB2"/><path d="M44.024 28.348l-5.38 7.267 3.092 3.095 3.474 6.43.66 4.241 7.388-2.573-.876-3.957L47.65 32.2l-3.626-3.853z" fill="#1D8CB2"/><path d="M28.666 44.798l-5.121-8.701 1.262-5.03 4.616-9.795 15.515-11.177 7.628-3.834 4.006-.085-6.597 11.648-5.951 10.524-5.38 7.267-5.197 4.975-4.781 4.208z" fill="#EFE5DA"/><path d="M26.062 53.991l5.518-5.234 2.876 1.237 1.859-.48 3.275.375-.95 1.3-1.522 1.014 2.69.489 2.767 1.381-1.383 1.904-3.407-.253-5.093-1.366 1.447 1.853-.496 1.282-2.652.168-4.93-3.67zm4.14-5.733l2.98-.078-.627-1.215.157-.627 1.843.823 2.745.117.824-.313-1.294-.627-2.197-.548-3.529-2.821-2.275 1.88 1.373 3.409zm19.687 5.681h3.451l1.137-1.111-.843-1.762 4.387 1.602 3.26.252 2.236-2.138-2.768-1.381-2.646-.508 1.37-.616 1.276-.881-3.024-1.016-2.327.323-2.14.105-7.389 2.573 4.02 4.558zM30.28 7.36l.157-3.335 1.655-2.557L35.52.82l2.418 1.435 1.058 3.735-1.875 3.05-3.598.316L30.28 7.36zM10.182 51.595l.117 2.789 2.903 1.442 1.914-2.037 3.94 1.403 3.101-1.201-.76-1.788-2.377-1.156 1.53-1.637-.471-1.306-4.644.373-3.68-1.925-1.573 5.043z" fill="#BD1100"/><path d="M35.193 8.178l.693-4.376-3.538 2.053 2.845 2.323z" fill="#23151A"/><path d="M32.645 2.196l3.241 1.606-3.538 2.053.297-3.66zM53.454.15l3.118 5.572-.27-3.415L53.454.15z" fill="#352027"/><path d="M39.38 6.26l-4.187 1.918.693-4.376 3.494 2.459z" fill="#C92820"/><path d="M33.523 10.095l1.67-1.917 4.187-1.917-2.259 3.095-3.598.74z" fill="#BB1F2A"/><path d="M32.348 5.855l1.175 4.24 1.67-1.917-2.845-2.323z" fill="#C92820"/><path d="M29.825 7.36l2.523-1.505 1.175 4.24-3.698-2.736z" fill="#E75C21"/><path d="M32.645 2.196l-2.527 1.83 2.23 1.829.297-3.66z" fill="#C92820"/><path d="M29.825 7.36l2.523-1.505-2.23-1.83-.293 3.334z" fill="#E14628"/><path d="M35.886 3.802l2.355-1.775 1.14 4.234-3.495-2.459z" fill="#BB1F2A"/><path d="M32.645 2.196l3.11-1.488.131 3.094-3.242-1.606z" fill="#E14628"/><path d="M38.24 2.027L35.756.708l.131 3.094 2.355-1.775z" fill="#E75C21"/><path d="M32.645 2.196l-.784-1.033 3.894-.455-3.11 1.488z" fill="#C92820"/><path d="M30.118 4.025l1.743-2.862.784 1.033-2.527 1.83z" fill="#E14628"/><path d="M51.395 0l1.819 1.228.24-1.078-2.06-.15zm5.177 5.722l-3.358-4.494.24-1.078 3.118 5.572z" fill="#C92820"/><path d="M52.614 6.26l.6-5.032 3.358 4.494-3.958.539z" fill="#43B0C9"/><path d="M56.572 6.176v-.454l-3.958.539 3.958-.085z" fill="#1DB9EF"/><path d="M39.38 6.26l-1.14-4.233 8.557.909L39.38 6.26z" fill="#137691"/><path d="M22.336 16.055L21.11 32.622l-6.111-8.221 7.338-8.346z" fill="#1D8CB2"/><path d="M31.58 48.757l-11.501-.653 8.588-3.306 2.912 3.96z" fill="#43B0C9"/><path d="M41.736 38.71l5.914-6.51-7.146.903-1.86 2.512 3.092 3.095z" fill="#0E6377"/><path d="M52.383 42.85L47.65 32.2l-2.44 12.94 7.172-2.29z" fill="#30A1BF"/><path d="M53.258 46.808L45.21 45.14l7.172-2.29.876 3.958z" fill="#5BC6D8"/><path d="M0 41.468l1.398-5.94 2.29 2.465L0 41.467z" fill="#137691"/><path d="M4.828 48.058l5.357 3.537 1.588-5.043-6.945 1.506z" fill="#1D8CB2"/><path d="M0 41.468l1.56 3.654 2.288-3.125L0 41.467z" fill="#137691"/><path d="M23.19 51.136l8.39-2.379-5.518 5.234-2.872-2.855z" fill="#0E6377"/><path d="M20.079 48.104l11.5.653-8.39 2.38-3.11-3.033zM6.77 32.147l8.228-7.746 6.111 8.221-14.34-.475z" fill="#137691"/><path d="M21.11 32.622l3.703-1.555-1.265 5.03-2.439-3.475z" fill="#1D8CB2"/><path d="M21.11 32.622l-5.16 7.31 7.598-3.835-2.439-3.475z" fill="#137691"/><path d="M13.593 34.839l7.516-2.217-5.16 7.31-2.356-5.093z" fill="#30A1BF"/><path d="M6.77 32.147l14.34.475-7.517 2.217-6.823-2.692zm15.566-16.092l7.489-8.696-.39 13.913-7.099-5.217z" fill="#1D8CB2"/><path d="M29.435 21.272l4.088-11.177 3.598-.739-7.686 11.916z" fill="#2798B7"/><path d="M44.938 10.095l-7.817-.739-7.686 11.916 15.503-11.177z" fill="#43B0C9"/><path d="M29.825 7.36l3.698 2.735-4.088 11.177.39-13.913z" fill="#30A1BF"/><path d="M51.395 0l1.819 1.228-6.417 1.708L51.395 0z" fill="#137691"/><path d="M44.024 28.348l-5.38 7.267-9.209-14.343 14.589 7.076zm-20.476 7.749l1.265-5.03 8.634 9.523-9.9-4.493z" fill="#F7F1EB"/><path d="M38.643 35.615l-5.196 4.975-8.635-9.523 13.831 4.548z" fill="#EFE5DA"/><path d="M24.813 31.067l4.622-9.795 9.208 14.343-13.83-4.548z" fill="#DBC9B6"/><path d="M29.435 21.272l20.54-3.448-5.951 10.524-14.589-7.076z" fill="#EFE5DA"/><path d="M21.11 32.622l8.325-11.35-7.099-5.217-1.227 16.567z" fill="#30A1BF"/><path d="M29.435 21.272l-8.326 11.35 3.703-1.555 4.623-9.795z" fill="#5BC6D8"/><path d="M49.975 17.824l-5.037-7.729-15.503 11.177 20.54-3.448z" fill="#EADBC8"/><path d="M52.614 6.26l-7.676 3.835 5.037 7.729 2.64-11.563z" fill="#DBC9B6"/><path d="M52.614 6.26l3.958-.084-6.597 11.648 2.64-11.563zM23.548 36.097l5.119 8.7 4.78-4.207-9.9-4.493z" fill="#EFE5DA"/><path d="M15.95 39.932l7.598-3.835-3.47 12.007-4.128-8.172z" fill="#30A1BF"/><path d="M28.667 44.798l-5.12-8.701-3.468 12.007 8.588-3.306z" fill="#5BC6D8"/><path d="M46.797 2.936l5.817 3.325.6-5.033-6.417 1.708z" fill="#1D8CB2"/><path d="M39.38 6.26l7.417-3.324 5.817 3.325H39.38z" fill="#30A1BF"/><path d="M39.38 6.26l5.558 3.835-7.817-.739 2.26-3.095z" fill="#2798B7"/><path d="M39.38 6.26h13.234l-7.676 3.835-5.558-3.834z" fill="#1D8CB2"/><path d="M3.688 37.993l.16 4.004 8.447-2.163-8.607-1.841z" fill="#1B829E"/><path d="M0 41.468l3.688-3.475.16 4.004L0 41.467z" fill="#1D8CB2"/><path d="M12.295 39.834l-.521 6.718-7.926-4.555 8.447-2.163z" fill="#2CA0BF"/><path d="M13.593 34.839l-1.298 4.995 3.655.098-2.357-5.093z" fill="#43B0C9"/><path d="M3.688 37.993l9.905-3.154-1.298 4.995-8.607-1.841z" fill="#30A1BF"/><path d="M13.593 34.839l-9.224-1.228-.68 4.382 9.904-3.154z" fill="#2798B7"/><path d="M1.398 35.528l2.97-1.917-.68 4.382-2.29-2.465z" fill="#1D8CB2"/><path d="M6.77 32.147l-2.401 1.464 9.224 1.228-6.823-2.692z" fill="#137691"/><path d="M45.21 45.14l.66 4.26 7.388-2.592-8.048-1.668z" fill="#1D8CB2"/><path d="M45.21 45.14l-3.474-6.43 5.914-6.51-2.44 12.94zm-43.65-.018l10.214 1.43-6.946 1.506-3.269-2.936z" fill="#137691"/><path d="M3.848 41.997l-2.289 3.125 10.215 1.43-7.926-4.555z" fill="#1D8CB2"/><path d="M15.95 39.932l-4.176 6.62 8.305 1.552-4.13-8.172z" fill="#137691"/><path d="M12.295 39.834l-.521 6.718 4.176-6.62-3.655-.098z" fill="#1D8CB2"/><path d="M47.65 32.2l-3.626-3.852-3.52 4.755 7.146-.903z" fill="#137691"/><path d="M34.638 47.51l3.113.064-1.248-1.488-1.865 1.423z" fill="#BD1100"/><path d="M34.86 45.561l-.222 1.948 1.865-1.423-1.643-.525z" fill="#C92000"/><path d="M31.374 48.477l2.269-.082-1.803-1.492-.466 1.574z" fill="#BD1100"/><path d="M30.186 46.86l1.188 1.617.466-1.574-1.654-.042zm4.452.65l-1.868-.837 2.09-1.112-.222 1.948z" fill="#772715"/><path d="M31.918 44.78l.852 1.893 2.09-1.112-2.942-.78z" fill="#C92000"/><path d="M30.186 46.86l1.732-2.08.852 1.893-2.584.188z" fill="#BD1100"/><path d="M28.667 44.798l3.25-.018-1.73 2.08-1.52-2.062z" fill="#772715"/><path d="M30.991 42.751l3.869 2.81-2.942-.78-.927-2.03z" fill="#C13409"/><path d="M28.667 44.798l2.324-2.047.927 2.03-3.251.017z" fill="#721E19"/><path d="M30.186 46.86l1.654.043.93-.23-2.584.188z" fill="#BD1100"/><path d="M33.643 48.395l-1.803-1.492.93-.23.873 1.721zm4.108-.821l.812-.587-2.06-.901 1.248 1.488z" fill="#C13409"/><path d="M15.116 53.79l-.674.781-1.615-5.618 2.29 4.836zm7.076.234l-3.135-2.977 2.34 1.157.795 1.82z" fill="#C92000"/><path d="M12.827 48.953l2.29 4.836 3.94-2.742-6.23-2.094z" fill="#BD1100"/><path d="M19.057 55.192l.007-4.145-3.94 2.742 3.933 1.403z" fill="#C13409"/><path d="M15.435 48.477l3.622 2.57 1.492-1.637-5.114-.933z" fill="#721E19"/><path d="M12.827 48.953l2.608-.476 3.622 2.57-6.23-2.094z" fill="#93201B"/><path d="M13.202 55.826l1.24-1.255-4.143-.187 2.903 1.442z" fill="#C92000"/><path d="M12.827 48.953l1.615 5.618-4.26-2.976 2.645-2.642z" fill="#992213"/><path d="M10.3 54.384l-.118-2.789 4.26 2.976-4.143-.187z" fill="#BD1100"/><path d="M20.079 48.104l.47 1.306-5.114-.933 4.644-.373z" fill="#442417"/><path d="M11.774 46.552l3.66 1.925 4.645-.373-8.306-1.552z" fill="#19515E"/><path d="M11.774 46.552l1.053 2.401-2.645 2.642 1.591-5.043z" fill="#9B3C0D"/><path d="M11.774 46.552l1.053 2.401 2.608-.476m3.622 6.715l3.135-1.168-3.135-2.977v4.145z" fill="#992213"/><path d="M32.692 54.358l5.093 1.366 3.1-2.272-8.193.906z" fill="#C13409"/><path d="M41.192 55.977l-3.407-.253 3.1-2.272.307 2.525z" fill="#BD1100"/><path d="M42.575 54.073l-1.383 1.904-.306-2.525 1.69.621z" fill="#C92000"/><path d="M39.808 52.692l2.767 1.381-1.69-.621-1.077-.76z" fill="#C92000"/><path d="M40.886 53.452l-3.768-1.248 2.69.488 1.078.76z" fill="#C13409"/><path d="M31.58 48.757l1.112 5.6 4.426-2.154-5.539-3.446z" fill="#BD1100"/><path d="M40.886 53.452l-3.768-1.248-4.426 2.154 8.194-.906z" fill="#A53116"/><path d="M34.456 49.994l2.662 2.21 1.521-1.014-4.183-1.196zm1.859-.48l-1.86.48 5.135-.105-3.275-.375z" fill="#BD1100"/><path d="M38.639 51.19l.951-1.301-5.134.105 4.183 1.196zm-7.059-2.433l2.876 1.237 2.662 2.21-5.539-3.447z" fill="#C13409"/><path d="M31.58 48.757l1.112 5.6-6.63-.366 5.517-5.234z" fill="#C13409"/><path d="M30.991 57.66l-4.93-3.669 5.518 1.652-.588 2.018z" fill="#A50800"/><path d="M31.58 55.643l1.112-1.285-6.63-.367 5.517 1.652z" fill="#BD1100"/><path d="M34.139 56.211l-1.447-1.853-1.113 1.285 2.56.568z" fill="#C13409"/><path d="M34.139 56.211l-.496 1.282-2.652.168.588-2.018 2.56.568z" fill="#BD1100"/><path d="M53.634 51.066l4.387 1.602 2.865-2.272-7.252.67z" fill="#C13409"/><path d="M61.281 52.92l-3.26-.252 2.865-2.272.395 2.524z" fill="#BD1100"/><path d="M63.517 50.782l-2.236 2.138-.395-2.524 2.631.386zM60.75 49.4l2.767 1.382-2.63-.386-.138-.995z" fill="#C92000"/><path d="M60.886 50.396l-2.826-1.483 2.69.488.136.995z" fill="#C13409"/><path d="M60.886 50.396l-2.826-1.483-4.426 2.154 7.252-.671z" fill="#A53116"/><path d="M55.398 46.703l2.662 2.21 1.413-.636-4.075-1.574zm2.327-.323l-2.327.323 5.351.693-3.024-1.016z" fill="#BD1100"/><path d="M59.473 48.277l1.276-.881-5.351-.693 4.075 1.574zm-6.215-1.469l2.14-.105 2.662 2.21-4.802-2.105z" fill="#C13409"/><path d="M53.258 46.808l4.802 2.105-4.426 2.154-.376-4.26z" fill="#BD1100"/><path d="M49.889 53.978l-4.02-4.577 6.652 2.95-2.632 1.627z" fill="#A50800"/><path d="M52.521 52.352l1.113-1.285L45.87 49.4l6.652 2.95z" fill="#BD1100"/><path d="M54.477 52.828l-.843-1.762-1.113 1.286 1.956.476z" fill="#C13409"/><path d="M54.477 52.828l-1.137 1.15h-3.451l2.632-1.626 1.956.476z" fill="#BD1100"/><path d="M53.258 46.808l.376 4.258-7.765-1.665 7.389-2.593z" fill="#A50800"/></g><defs><clipPath id="clip0_3_4"><path fill="#fff" d="M0 0h132v57.661H0z"/></clipPath></defs></svg>